Patient4_TMGait_0pt2_02_left_24_GRF.mot
version=1
nRows=32
nColumns=19
inDegrees=no
endheader
time	F1x	F1y	F1z	M1x	M1y	M1z	F2x	F2y	F2z	M2x	M2y	M2z	EC1x	EC1y	EC1z	EC2x	EC2y	EC2z
53.88	-0.15121	-3.1189	0.027446	0.53173	-0.35274	-3.954	-2.3903	674.2283	-52.5625	244.2247	65.1301	846.6709	-0.0592	0.0182	-0.0073	-0.0462	0.0165	0.9585
53.9021	-0.08567	-2.0853	0.1107	0.33884	-0.36509	-2.6229	-4.2921	692.7798	-50.4925	250.6587	63.8321	868.8493	-0.0592	0.0182	-0.0073	-0.0462	0.0165	0.9585
53.9243	-0.030094	-1.1831	0.17891	0.17027	-0.37006	-1.4661	-6.3032	717.3467	-47.9421	259.5353	61.8902	897.9963	-0.0592	0.0182	-0.0073	-0.0462	0.0165	0.9585
53.9464	0.0077778	-0.46756	0.23285	0.033942	-0.37437	-0.5505	-8.2269	746.8682	-44.9737	270.5161	59.2717	932.7496	-0.0592	0.0182	-0.0073	-0.0462	0.0165	0.9585
53.9686	0.025291	0.057542	0.2741	-0.070045	-0.38106	0.11739	-9.8795	778.8711	-41.7521	282.6652	56.0928	970.0637	-0.0592	0.0182	-0.0073	-0.0462	0.0165	0.9585
53.9907	0.026341	0.41412	0.30568	-0.14443	-0.39374	0.56299	-11.1037	809.9066	-38.5132	294.6256	52.5773	1005.7353	-0.0592	0.0182	-0.0073	-0.0462	0.0165	0.9585
54.0129	0.015367	0.63204	0.33388	-0.19307	-0.4172	0.82489	-11.7527	836.381	-35.4997	304.9669	48.9678	1035.3944	-0.0592	0.0182	-0.0073	-0.0462	0.0165	0.9585
54.035	-0.0050559	0.73524	0.36335	-0.21805	-0.45188	0.93117	-11.6675	855.455	-32.8931	312.5557	45.44	1055.5709	-0.0592	0.0182	-0.0073	-0.0462	0.0165	0.9585
54.0571	-0.031094	0.72481	0.39302	-0.21589	-0.49189	0.87881	-10.6767	865.6191	-30.7771	316.7891	42.0609	1064.3846	-0.0592	0.0182	-0.0073	-0.0462	0.0165	0.9585
54.0793	-0.057929	0.57834	0.41912	-0.17655	-0.5287	0.6369	-8.6305	866.759	-29.1443	317.621	38.8099	1061.6451	-0.0592	0.0182	-0.0073	-0.0462	0.0165	0.9585
54.1014	-0.079227	0.26055	0.43647	-0.085154	-0.55309	0.15734	-5.4516	859.8602	-27.9408	315.4399	35.6421	1048.5386	-0.0592	0.0182	-0.0073	-0.0462	0.0165	0.9585
54.1236	-0.085463	-0.27226	0.43606	0.076988	-0.55126	-0.62023	-1.1932	846.5255	-27.1169	310.8713	32.5609	1027.0791	-0.0592	0.0182	-0.0073	-0.0462	0.0165	0.9585
54.1457	-0.061593	-1.0605	0.40444	0.3277	-0.50113	-1.7518	3.964	828.5175	-26.6521	304.5931	29.6389	999.5618	-0.0592	0.0182	-0.0073	-0.0462	0.0165	0.9585
54.1679	0.010475	-2.1233	0.32776	0.67589	-0.37818	-3.2588	9.7694	807.4681	-26.5526	297.2196	26.9954	968.1858	-0.0592	0.0182	-0.0073	-0.0462	0.0165	0.9585
54.19	0.14656	-3.4246	0.19232	1.1118	-0.1585	-5.0727	15.9362	784.8185	-26.8348	289.2814	24.7663	934.9521	-0.0592	0.0182	-0.0073	-0.0462	0.0165	0.9585
54.2121	0.35996	-4.8327	-0.013971	1.595	0.17876	-6.9906	22.1554	761.9866	-27.4801	281.2947	23.0466	901.8228	-0.0592	0.0182	-0.0073	-0.0462	0.0165	0.9585
54.2343	0.6567	-6.0734	-0.29695	2.0372	0.64193	-8.6153	28.111	740.5532	-28.4202	273.8315	21.8655	870.8994	-0.0592	0.0182	-0.0073	-0.0462	0.0165	0.9585
54.2564	1.0255	-6.6786	-0.64475	2.2861	1.2105	-9.2852	33.5135	722.2118	-29.5825	267.4996	21.2281	844.3327	-0.0592	0.0182	-0.0073	-0.0462	0.0165	0.9585
54.2786	1.4284	-5.9488	-1.0169	2.1092	1.8148	-8.0129	38.1372	708.444	-30.9383	262.8232	21.1619	823.928	-0.0592	0.0182	-0.0073	-0.0462	0.0165	0.9585
54.3007	1.7906	-2.933	-1.3333	1.1855	2.3174	-3.4635	41.7993	700.1246	-32.4901	260.1015	21.715	810.7162	-0.0592	0.0182	-0.0073	-0.0462	0.0165	0.9585
54.3229	1.9839	3.5414	-1.4663	-0.88318	2.499	5.98	44.3203	697.1123	-34.2179	259.2637	22.9098	804.5239	-0.0592	0.0182	-0.0073	-0.0462	0.0165	0.9585
54.345	1.815	14.7513	-1.2328	-4.5327	2.041	22.0384	45.5527	698.029	-36.0392	259.789	24.6856	803.7341	-0.0592	0.0182	-0.0073	-0.0462	0.0165	0.9585
54.3671	1.0266	31.831	-0.38562	-10.1594	0.52011	46.1912	45.4053	700.3835	-37.8021	260.7514	26.8848	805.4248	-0.0592	0.0182	-0.0073	-0.0462	0.0165	0.9585
54.3893	-0.60239	55.4375	1.3466	-18.0091	-2.5018	79.2088	43.8706	700.9404	-39.3042	260.9568	29.2636	805.7942	-0.0592	0.0182	-0.0073	-0.0462	0.0165	0.9585
54.4114	-3.048	85.3536	4.145	-28.0382	-7.2459	120.6014	41.078	696.2386	-40.339	259.1347	31.5276	800.7442	-0.0592	0.0182	-0.0073	-0.0462	0.0165	0.9585
54.4336	-5.9441	120.1315	7.9926	-39.7925	-13.5326	168.1486	37.304	683.2819	-40.7253	254.197	33.3662	786.6733	-0.0592	0.0182	-0.0073	-0.0462	0.0165	0.9585
54.4557	-8.7187	157.2357	12.6847	-52.4421	-20.8497	218.1595	32.9301	660.4033	-40.3278	245.5579	34.4954	761.4848	-0.0592	0.0182	-0.0073	-0.0462	0.0165	0.9585
54.4779	-10.8062	194.0424	17.7547	-65.1202	-28.3371	266.924	28.3948	627.9353	-39.1233	233.3756	34.7491	725.3719	-0.0592	0.0182	-0.0073	-0.0462	0.0165	0.9585
54.5	-11.9127	229.5939	22.5928	-77.5205	-35.0707	313.1263	24.1231	588.2471	-37.2362	218.556	34.1403	680.8828	-0.0592	0.0182	-0.0073	-0.0462	0.0165	0.9585
54.5221	-12.0739	264.3751	26.743	-89.8088	-40.4728	357.5458	20.3877	544.8393	-34.8773	202.4157	32.8335	631.9143	-0.0592	0.0182	-0.0073	-0.0462	0.0165	0.9585
54.5443	-11.5378	298.8061	30.046	-102.0966	-44.4474	400.9632	17.2364	501.1768	-32.2724	186.2491	31.0781	582.3944	-0.0592	0.0182	-0.0073	-0.0462	0.0165	0.9585
54.5664	-10.6182	332.5804	32.577	-114.2209	-47.2395	443.2073	14.5621	459.992	-29.6646	171.0641	29.1846	535.4647	-0.0592	0.0182	-0.0073	-0.0462	0.0165	0.9585
